# xmcd
#
# Track frame offsets: 
#        150
#        13005
#        24685
#        35837
#        47615
#        58482
#        70255
#        80237
#        90657
#        101340
#        112450
#        123547
#        135212
#        146725
#        157057
#        167807
#        180292
#        190647
#        201580
#        211912
#        222240
#
# Disc length: 3103 seconds
#
# Revision: 1
# Processed by: cddbd v1.5.1PL0 Copyright (c) Steve Scherf et al.
# Submitted via: ExactAudioCopy v0.95b2
#
DISCID=400c1d15
DTITLE=Robert Johnson - The Complete Recordings [CD2)
DYEAR=1990
DGENRE=Blues
TTITLE0=Praching Blues (Up jumped the devil)
TTITLE1=If I Had Possession Over Judgement Day
TTITLE2=Stomes In My Passway
TTITLE3=I'm a Steady Rollin' Man
TTITLE4=From Four 'til Late
TTITLE5=Hellhound on my Trail
TTITLE6=Little Queen of Spades
TTITLE7=Little Queen of Spades V2
TTITLE8=Malted Milk
TTITLE9=Drunken Hearted Man
TTITLE10=Drunkeen Hearted Man V2
TTITLE11=Me and the Devil Blues
TTITLE12=Me and the Devil Blues V2
TTITLE13=Stop Breakin' Down Blues
TTITLE14=Stop Breaking Down Blues
TTITLE15=Travelling Riverside Blues
TTITLE16=Honeymoon Blues
TTITLE17=Love in Vain
TTITLE18=Love in Vain V2
TTITLE19=Milkcow's Calf Blues
TTITLE20=Milkcow's Calf Blues V2
EXTD=
EXTT0=
EXTT1=
EXTT2=
EXTT3=
EXTT4=
EXTT5=
EXTT6=
EXTT7=
EXTT8=
EXTT9=
EXTT10=
EXTT11=
EXTT12=
EXTT13=
EXTT14=
EXTT15=
EXTT16=
EXTT17=
EXTT18=
EXTT19=
EXTT20=
PLAYORDER=
